<svg xmlns="http://www.w3.org/2000/svg" viewBox="0 0 300 110" role="img" aria-label="Landal Holiday breaks in nature">
  <defs>
    <style>
      .teal{fill:#007c7a}.small{font-family:Arial, Helvetica, sans-serif;font-size:14px;font-weight:600}.word{font-family:Arial, Helvetica, sans-serif;font-size:52px;font-weight:800;letter-spacing:-2px}
    </style>
  </defs>
  <g class="teal" transform="translate(57 53)">
    <g>
      <rect x="-3" y="-51" width="6" height="14" rx="3" transform="rotate(0)"/>
      <rect x="-3" y="-51" width="6" height="14" rx="3" transform="rotate(10)"/>
      <rect x="-3" y="-51" width="6" height="14" rx="3" transform="rotate(20)"/>
      <rect x="-3" y="-51" width="6" height="14" rx="3" transform="rotate(30)"/>
      <rect x="-3" y="-51" width="6" height="14" rx="3" transform="rotate(40)"/>
      <rect x="-3" y="-51" width="6" height="14" rx="3" transform="rotate(50)"/>
      <rect x="-3" y="-51" width="6" height="14" rx="3" transform="rotate(60)"/>
      <rect x="-3" y="-51" width="6" height="14" rx="3" transform="rotate(70)"/>
      <rect x="-3" y="-51" width="6" height="14" rx="3" transform="rotate(80)"/>
      <rect x="-3" y="-51" width="6" height="14" rx="3" transform="rotate(90)"/>
      <rect x="-3" y="-51" width="6" height="14" rx="3" transform="rotate(100)"/>
      <rect x="-3" y="-51" width="6" height="14" rx="3" transform="rotate(110)"/>
      <rect x="-3" y="-51" width="6" height="14" rx="3" transform="rotate(120)"/>
      <rect x="-3" y="-51" width="6" height="14" rx="3" transform="rotate(130)"/>
      <rect x="-3" y="-51" width="6" height="14" rx="3" transform="rotate(140)"/>
      <rect x="-3" y="-51" width="6" height="14" rx="3" transform="rotate(150)"/>
      <rect x="-3" y="-51" width="6" height="14" rx="3" transform="rotate(160)"/>
      <rect x="-3" y="-51" width="6" height="14" rx="3" transform="rotate(170)"/>
      <rect x="-3" y="-51" width="6" height="14" rx="3" transform="rotate(180)"/>
      <rect x="-3" y="-51" width="6" height="14" rx="3" transform="rotate(190)"/>
      <rect x="-3" y="-51" width="6" height="14" rx="3" transform="rotate(200)"/>
      <rect x="-3" y="-51" width="6" height="14" rx="3" transform="rotate(210)"/>
      <rect x="-3" y="-51" width="6" height="14" rx="3" transform="rotate(220)"/>
      <rect x="-3" y="-51" width="6" height="14" rx="3" transform="rotate(230)"/>
      <rect x="-3" y="-51" width="6" height="14" rx="3" transform="rotate(240)"/>
      <rect x="-3" y="-51" width="6" height="14" rx="3" transform="rotate(250)"/>
      <rect x="-3" y="-51" width="6" height="14" rx="3" transform="rotate(260)"/>
      <rect x="-3" y="-51" width="6" height="14" rx="3" transform="rotate(270)"/>
      <rect x="-3" y="-51" width="6" height="14" rx="3" transform="rotate(280)"/>
      <rect x="-3" y="-51" width="6" height="14" rx="3" transform="rotate(290)"/>
      <rect x="-3" y="-51" width="6" height="14" rx="3" transform="rotate(300)"/>
      <rect x="-3" y="-51" width="6" height="14" rx="3" transform="rotate(310)"/>
      <rect x="-3" y="-51" width="6" height="14" rx="3" transform="rotate(320)"/>
      <rect x="-3" y="-51" width="6" height="14" rx="3" transform="rotate(330)"/>
      <rect x="-3" y="-51" width="6" height="14" rx="3" transform="rotate(340)"/>
      <rect x="-3" y="-51" width="6" height="14" rx="3" transform="rotate(350)"/>
    </g>
    <circle r="30"/>
    <rect x="-12" y="-18" width="9" height="36" rx="4" fill="#fff"/>
    <rect x="5" y="-18" width="9" height="36" rx="4" fill="#fff"/>
  </g>
  <text x="118" y="58" class="teal word">landal</text>
  <text x="119" y="80" class="teal small">Holiday breaks in nature</text>
</svg>
